<?xml version="1.0" encoding="UTF-8"?>
<svg width="24px" height="24px" viewBox="0 0 24 24" version="1.1" xmlns="http://www.w3.org/2000/svg" xmlns:xlink="http://www.w3.org/1999/xlink">
    <!-- Generator: Sketch 58 (84663) - https://sketch.com -->
    <title>关闭悬停</title>
    <desc>Created with Sketch.</desc>
    <g id="页面-1" stroke="none" stroke-width="1" fill="none" fill-rule="evenodd">
        <g id="疫情专题订阅" transform="translate(-1344.000000, -442.000000)">
            <g id="编组" transform="translate(1078.000000, 430.000000)">
                <g id="关闭" transform="translate(266.000000, 12.000000)">
                    <g id="编组-2">
                        <g id="编组">
                            <path d="M19.9549513,5.10570888 C20.0281746,5.17893219 20.0281746,5.29765062 19.9549513,5.37087393 L13.3258252,12 L19.9549513,18.6291261 C20.0281746,18.7023494 20.0281746,18.8210678 19.9549513,18.8942911 L18.8942911,19.9549513 C18.8210678,20.0281746 18.7023494,20.0281746 18.6291261,19.9549513 L12,13.3258252 L5.37087393,19.9549513 C5.29765062,20.0281746 5.17893219,20.0281746 5.10570888,19.9549513 L4.04504871,18.8942911 C3.97182541,18.8210678 3.97182541,18.7023494 4.04504871,18.6291261 L10.6741748,12 L4.04504871,5.37087393 C3.97182541,5.29765062 3.97182541,5.17893219 4.04504871,5.10570888 L5.10570888,4.04504871 C5.17893219,3.97182541 5.29765062,3.97182541 5.37087393,4.04504871 L12,10.6741748 L18.6291261,4.04504871 C18.7023494,3.97182541 18.8210678,3.97182541 18.8942911,4.04504871 L19.9549513,5.10570888 Z" id="路径" fill="#FFFFFF"></path>
                            <rect id="矩形" stroke="#979797" stroke-width="0.5" fill="#D8D8D8" opacity="0" x="0.25" y="0.25" width="23.5" height="23.5"></rect>
                        </g>
                    </g>
                </g>
            </g>
        </g>
    </g>
</svg>