<?xml version="1.0" encoding="UTF-8"?>
<svg width="32px" height="32px" viewBox="0 0 32 32" version="1.1" xmlns="http://www.w3.org/2000/svg" xmlns:xlink="http://www.w3.org/1999/xlink">
    <!-- Generator: Sketch 58 (84663) - https://sketch.com -->
    <title>分组</title>
    <desc>Created with Sketch.</desc>
    <g id="页面-1" stroke="none" stroke-width="1" fill="none" fill-rule="evenodd">
        <g id="下载" transform="translate(-1388.000000, -474.000000)">
            <g id="编组-2" transform="translate(1384.000000, 470.000000)">
                <g id="分组-3" transform="translate(4.000000, 4.000000)">
                    <g id="分组">
                        <rect id="矩形" stroke="#979797" stroke-width="0.666666667" fill="#D8D8D8" opacity="0" x="0.333333333" y="0.333333333" width="31.3333333" height="31.3333333"></rect>
                        <path d="M22.7265625,22.3103125 L22.7265625,23.3584375 L20.715625,23.3584375 L20.715625,24.3578125 L22.4828125,24.3578125 L22.4828125,25.4059375 L20.715625,25.4059375 L20.715625,26.8440625 C21.4346875,27.0634375 22.3365625,27.1121875 23.4090625,27.1121875 L24.3021589,27.1115944 C25.6108794,27.1096086 27.7461062,27.100975 28.515625,27.0634375 C28.320625,27.34375 28.1134375,27.8921875 28.0403125,28.2578125 L23.396875,28.2578125 C21.1421875,28.2578125 19.643125,28.02625 18.668125,26.734375 C18.5096875,27.4290625 18.278125,28.0140625 17.936875,28.5015625 C17.7296875,28.3065625 17.2178125,27.9653125 16.9375,27.8190625 C17.644375,26.905 17.8028125,25.4546875 17.8271875,23.7971875 L19.009375,23.8703125 L18.9975752,24.1082406 C18.976576,24.521164 18.952825,24.9155125 18.911875,25.2840625 C19.0703125,25.6375 19.2653125,25.9178125 19.496875,26.149375 L19.496875,23.3584375 L17.2178125,23.3584375 L17.2178125,22.3103125 L22.7265625,22.3103125 Z M7.6803125,17.03125 L9.2159375,17.03125 C9.1590625,17.275 9.09677083,17.51875 9.03267361,17.7661111 L8.935625,18.1403125 L13.4571875,18.1403125 L13.4571875,19.5175 L8.594375,19.5175 L8.3140625,20.5534375 L14.3225,20.5534375 L14.3225,21.9428125 L7.9240625,21.9428125 C7.8590625,22.1784375 7.78864583,22.4086458 7.72364583,22.6334375 L7.6315625,22.9665625 L12.396875,22.9665625 L12.6284375,22.8934375 L13.7496875,23.539375 C13.0691563,24.2599375 12.2324839,25.1037693 11.3881309,25.9359063 L11.0262279,26.291427 L10.836875,26.4765625 C11.3804692,26.6879602 11.8824897,26.899358 12.2879948,27.0970202 L12.48245,27.1946431 L12.5309375,27.22 L11.69,28.4875 C10.4970588,27.7992647 8.10577855,26.8951125 6.22317321,26.3643695 L5.8765625,26.269375 L6.644375,25.1725 C7.44875,25.3675 8.399375,25.635625 9.3378125,25.9525 C9.75828125,25.5411719 10.1924609,25.1229883 10.5992188,24.7185156 L10.9953125,24.319375 L5.59625,24.319375 C5.78809028,23.7918142 5.9950291,23.166113 6.20518334,22.4957452 L6.33156668,22.0885923 L6.37625,21.9428125 L3.5,21.9428125 L3.5,20.5534375 L6.7784375,20.5534375 C6.8434375,20.3178125 6.9084375,20.0930208 6.96982639,19.8646181 L7.05875,19.5175 L4.5115625,19.5175 L4.5115625,18.1403125 L7.424375,18.1403125 L7.49212316,17.8373881 L7.49212316,17.8373881 L7.55987132,17.54441 L7.6803125,17.03125 L9.2159375,17.03125 Z M26.3340625,24.589375 C26.9407292,25.0010417 27.7496181,25.6053009 28.2642683,26.0426466 L28.4425,26.198125 L27.589375,27.0878125 C27.2263332,26.6936529 26.4925153,26.0964491 25.8612653,25.6117641 L25.6552968,25.4548026 L25.541875,25.369375 L26.3340625,24.589375 Z M26.1146875,21.1525 C26.0415625,24.443125 25.7246875,26.1615625 22.860625,27.05125 C22.73875,26.75875 22.44625,26.32 22.2146875,26.100625 C24.6396415,25.4027114 24.8602184,24.1192601 24.9156696,21.4033689 L24.9203125,21.1525 L26.1146875,21.1525 Z M28.39375,17.6059375 L28.39375,18.7515625 L26.1634375,18.7515625 C26.0881743,18.9294572 26.00907,19.0996696 25.9304374,19.2621996 L25.8133814,19.5002329 L25.7490625,19.6290625 L27.930625,19.6290625 L27.930625,24.6503125 L26.6996875,24.6503125 L26.6996875,20.665 L24.25,20.665 L24.25,24.7234375 L23.08,24.7234375 L23.08,19.6290625 L24.445,19.6290625 C24.518125,19.4503125 24.59125,19.2553125 24.6571528,19.0548958 L24.7496875,18.7515625 L22.69,18.7515625 L22.69,17.6059375 L28.39375,17.6059375 Z M22.2025,17.59375 L22.2025,21.615625 L17.7784375,21.615625 L17.7784375,17.59375 L22.2025,17.59375 Z M20.861875,20.0434375 L19.0703125,20.0434375 L19.0703125,20.640625 L20.861875,20.640625 L20.861875,20.0434375 Z M20.861875,18.5565625 L19.0703125,18.5565625 L19.0703125,19.129375 L20.861875,19.129375 L20.861875,18.5565625 Z M13.5059375,3.6828125 L14.6271875,4.743125 C13.7697302,5.07371094 12.7371334,5.34299804 11.7149697,5.55098631 L11.2780794,5.63637115 L11.1659375,5.6571875 L11.1659375,7.570625 L14.9075,7.570625 L14.9075,8.91125 L13.7740625,8.91125 L13.7740625,14.8953125 L12.3603125,14.8953125 L12.3603125,8.91125 L11.1659375,8.91125 L11.1658892,9.05051612 C11.1626798,10.8377537 10.9970187,13.2896094 9.959375,14.7978125 C9.7278125,14.541875 9.155,14.0909375 8.8503125,13.9325 C9.0355625,13.6595 9.1896125,13.3475 9.3062225,13.01522 L9.3865625,12.7625 L8.42375,13.371875 C8.25854167,12.9485286 7.93586914,12.3327261 7.63360864,11.8135161 L7.473125,11.54375 L8.42375,11.0196875 C8.789375,11.568125 9.1915625,12.2871875 9.39875,12.738125 C9.72686303,11.7008645 9.7976007,10.5257243 9.81053339,9.46815451 L9.81306333,9.0775759 L9.813125,4.71875 C11.15375,4.475 12.6284375,4.0971875 13.5059375,3.6828125 Z M21.1628125,4.13375 C20.776875,5.0478125 20.3147656,6.08882812 19.8752257,7.01699653 L19.615,7.5584375 L19.9075,7.5584375 L20.15125,7.5340625 L20.955625,7.716875 C20.7971875,9.5084375 20.4803125,10.9709375 20.005,12.1409375 C21.12625,13.10375 22.6375,13.3109375 24.4290625,13.323125 L24.7367929,13.3230707 C25.5960281,13.3226903 27.3584472,13.3196474 28.2348469,13.2953045 L28.4084333,13.2897554 L28.4875,13.2865625 C28.3062109,13.5531641 28.1155908,14.0717041 28.0136157,14.458443 L27.975625,14.615 L24.3925,14.615 C22.345,14.615 20.6753125,14.346875 19.42,13.3109375 C19.0421875,13.9446875 18.59125,14.444375 18.079375,14.834375 C17.8721875,14.5540625 17.3359375,14.054375 17.03125,13.88375 C17.61625,13.4815625 18.0915625,12.9453125 18.4815625,12.275 C18.1189844,11.7204687 17.7937305,11.0632959 17.5221301,10.2626581 L17.4090625,9.910625 L18.469375,9.5571875 C18.6278125,10.105625 18.835,10.5809375 19.0665625,10.9709375 C19.2545982,10.4381696 19.3889094,9.83376913 19.492521,9.15773597 L19.541875,8.81375 L17.591875,8.81375 C18.0151308,8.03072674 18.5394431,6.94453421 19.0052864,5.87422298 L19.1769254,5.47422386 L19.2128125,5.3890625 L17.4090625,5.3890625 L17.4090625,4.13375 L21.1628125,4.13375 Z M6.839375,3.5 C6.97648437,3.7925 7.12730469,4.13298828 7.25070312,4.45462402 L7.3634375,4.7675 L9.2890625,4.7675 L9.2890625,5.9496875 L7.7534375,5.9496875 L8.7528125,6.1446875 C8.5968125,6.5151875 8.4564125,6.8934875 8.3128925,7.2234275 L8.204375,7.4609375 L9.471875,7.4609375 L9.471875,8.6553125 L7.2659375,8.6553125 L7.2659375,9.59375 L9.276875,9.59375 L9.276875,10.8125 L7.2659375,10.8125 L7.2659375,13.420625 C7.2659375,14.005625 7.1684375,14.3103125 6.8028125,14.5175 C6.50117187,14.678375 6.11658008,14.7148232 5.62850669,14.7226533 L5.41293692,14.7245363 L5.30375,14.7246875 C5.255,14.3834375 5.084375,13.88375 4.91375,13.5425 C5.08624244,13.5482497 5.26144746,13.5512869 5.41249081,13.5528912 L5.55448492,13.5540653 L5.79125,13.5546875 C5.8985,13.5546875 5.94335,13.5312875 5.957,13.4532875 L5.9616956,13.3996859 L5.961875,10.8125 L3.719375,10.8125 L3.719375,9.59375 L5.961875,9.59375 L5.961875,8.6553125 L3.64625,8.6553125 L3.64625,7.4609375 L4.840625,7.4609375 C4.791875,7.1586875 4.696325,6.7706375 4.572695,6.4340675 L4.475,6.1934375 L5.474375,5.9496875 L3.8290625,5.9496875 L3.8290625,4.7675 L5.913125,4.7675 C5.8463587,4.56720109 5.7705612,4.36238658 5.69397838,4.16679959 L5.5795459,3.88205764 L5.5475,3.8046875 L6.839375,3.5 Z M4.548125,11.1415625 L5.669375,11.421875 C5.376875,12.22625 4.91375,13.0915625 4.4384375,13.6278125 C4.2190625,13.445 3.768125,13.10375 3.5,12.9453125 C3.963125,12.4821875 4.32875,11.7875 4.548125,11.1415625 Z M24.88,3.5 L24.88,4.4140625 L27.5490625,4.4140625 L27.5490625,6.0471875 L28.219375,6.0471875 L28.219375,7.15625 L27.5490625,7.15625 L27.5490625,8.7771875 L24.88,8.7771875 L24.88,9.3621875 L27.6709375,9.3621875 L27.6709375,10.4103125 L24.88,10.4103125 L24.88,11.0075 L28.073125,11.0075 L28.073125,12.153125 L24.88,12.153125 L24.88,12.981875 L23.515,12.981875 L23.515,12.153125 L20.8215625,12.153125 L20.8215625,11.0075 L23.515,11.0075 L23.515,10.4103125 L21.3090625,10.4103125 L21.3090625,9.3621875 L23.515,9.3621875 L23.515,8.7771875 L21.3821875,8.7771875 L21.3821875,7.6803125 L23.515,7.6803125 L23.515,7.15625 L20.7728125,7.15625 L20.7728125,6.0471875 L23.515,6.0471875 L23.515,5.5109375 L21.443125,5.5109375 L21.443125,4.4140625 L23.515,4.4140625 L23.515,3.5 L24.88,3.5 Z M26.2815625,7.15625 L24.88,7.15625 L24.88,7.6803125 L26.2815625,7.6803125 L26.2815625,7.15625 Z M7.4365625,5.9496875 L5.645,5.9496875 C5.82258929,6.30486607 5.96436224,6.7764477 6.03194424,7.13418458 L6.059375,7.3025 L5.474375,7.4609375 L6.9125,7.4609375 C7.0953125,7.0221875 7.3146875,6.400625 7.4365625,5.9496875 Z M26.2815625,5.5109375 L24.88,5.5109375 L24.88,6.0471875 L26.2815625,6.0471875 L26.2815625,5.5109375 Z" id="形状结合" fill="#8A9098" fill-rule="nonzero"></path>
                    </g>
                </g>
            </g>
        </g>
    </g>
</svg>