<?xml version="1.0" encoding="UTF-8"?>
<svg width="24px" height="24px" viewBox="0 0 24 24" version="1.1" xmlns="http://www.w3.org/2000/svg" xmlns:xlink="http://www.w3.org/1999/xlink">
    <!-- Generator: Sketch 58 (84663) - https://sketch.com -->
    <title>分组</title>
    <desc>Created with Sketch.</desc>
    <g id="页面-1" stroke="none" stroke-width="1" fill="none" fill-rule="evenodd">
        <g id="下载" transform="translate(-1392.000000, -598.000000)">
            <g id="编组-2" transform="translate(1384.000000, 470.000000)">
                <g id="分组-5" transform="translate(8.000000, 128.000000)">
                    <g id="分组">
                        <rect id="矩形" stroke="#979797" stroke-width="0.5" fill="#D8D8D8" opacity="0" x="0.25" y="0.25" width="23.5" height="23.5"></rect>
                        <path d="M18.375,1.5 C18.7892136,1.5 19.125,1.83578644 19.125,2.25 L19.125,21.75 C19.125,22.1642136 18.7892136,22.5 18.375,22.5 L5.625,22.5 C5.21078644,22.5 4.875,22.1642136 4.875,21.75 L4.875,2.25 C4.875,1.83578644 5.21078644,1.5 5.625,1.5 L18.375,1.5 Z M12,18.75 C11.1715729,18.75 10.5,19.4215729 10.5,20.25 C10.5,21.0784271 11.1715729,21.75 12,21.75 C12.8284271,21.75 13.5,21.0784271 13.5,20.25 C13.5,19.4215729 12.8284271,18.75 12,18.75 Z M17.4375,3.1875 L6.56247656,3.1875 L6.56247656,18 L17.4375,18 L17.4375,3.1875 Z" id="形状" fill="#8A9098" fill-rule="nonzero"></path>
                    </g>
                </g>
            </g>
        </g>
    </g>
</svg>