<?xml version="1.0" encoding="UTF-8"?>
<svg width="24px" height="24px" viewBox="0 0 24 24" version="1.1" xmlns="http://www.w3.org/2000/svg" xmlns:xlink="http://www.w3.org/1999/xlink">
    <!-- Generator: Sketch 58 (84663) - https://sketch.com -->
    <title>分组</title>
    <desc>Created with Sketch.</desc>
    <g id="页面-1" stroke="none" stroke-width="1" fill="none" fill-rule="evenodd">
        <g id="下载" transform="translate(-1318.000000, -558.000000)">
            <g id="编组-2备份" transform="translate(1310.000000, 470.000000)">
                <g id="分组-4" transform="translate(8.000000, 88.000000)">
                    <g id="分组">
                        <path d="M21.375,13.875 L21.375,21.375 L13.875,21.375 L13.875,19.875 L19.875,19.875 L19.875,13.875 L21.375,13.875 Z M12.75,17.625 L12.75,21.375 L11.25,21.375 L11.25,17.625 L12.75,17.625 Z M10.125,13.875 L10.125,21.375 L2.625,21.375 L2.625,13.875 L10.125,13.875 Z M8.625,15.375 L4.125,15.375 L4.125,19.875 L8.625,19.875 L8.625,15.375 Z M18.75,13.875 L18.75,15.375 L15.375,15.375 L15.375,18.75 L13.875,18.75 L13.875,13.875 L18.75,13.875 Z M7.5,16.5 L7.5,18.75 L5.25,18.75 L5.25,16.5 L7.5,16.5 Z M12.75,8.625 L12.75,15.375 L11.25,15.375 L11.25,12.75 L8.625,12.75 L8.625,11.25 L11.25,11.25 L11.25,8.625 L12.75,8.625 Z M6.375,11.25 L6.375,12.75 L2.625,12.75 L2.625,11.25 L6.375,11.25 Z M21.375,11.25 L21.375,12.75 L17.625,12.75 L17.625,11.25 L21.375,11.25 Z M10.125,2.625 L10.125,10.125 L2.625,10.125 L2.625,2.625 L10.125,2.625 Z M21.375,2.625 L21.375,10.125 L13.875,10.125 L13.875,2.625 L21.375,2.625 Z M8.625,4.125 L4.125,4.125 L4.125,8.625 L8.625,8.625 L8.625,4.125 Z M19.875,4.125 L15.375,4.125 L15.375,8.625 L19.875,8.625 L19.875,4.125 Z M7.5,5.25 L7.5,7.5 L5.25,7.5 L5.25,5.25 L7.5,5.25 Z M18.75,5.25 L18.75,7.5 L16.5,7.5 L16.5,5.25 L18.75,5.25 Z M12.75,2.625 L12.75,6.375 L11.25,6.375 L11.25,2.625 L12.75,2.625 Z" id="合并形状" fill="#FFFFFF" fill-rule="nonzero"></path>
                        <rect id="矩形" stroke="#979797" stroke-width="0.5" fill="#D8D8D8" opacity="0" x="0.25" y="0.25" width="23.5" height="23.5"></rect>
                    </g>
                </g>
            </g>
        </g>
    </g>
</svg>