<?xml version="1.0" encoding="UTF-8"?>
<svg width="36px" height="36px" viewBox="0 0 36 36" version="1.1" xmlns="http://www.w3.org/2000/svg" xmlns:xlink="http://www.w3.org/1999/xlink">
    <!-- Generator: Sketch 58 (84663) - https://sketch.com -->
    <title>分组</title>
    <desc>Created with Sketch.</desc>
    <g id="页面-1" stroke="none" stroke-width="1" fill="none" fill-rule="evenodd">
        <g id="下载" transform="translate(-1312.000000, -632.000000)">
            <g id="编组-2备份" transform="translate(1310.000000, 470.000000)">
                <g id="分组-6" transform="translate(2.000000, 162.000000)">
                    <g id="分组">
                        <rect id="矩形" stroke="#979797" stroke-width="0.5" fill="#D8D8D8" opacity="0" x="0.25" y="0.25" width="35.5" height="35.5"></rect>
                        <path d="M15.0946875,20.8828125 L15.0946875,22.0352344 L16.6725,22.0352344 L16.6725,22.9092188 L15.0946875,22.9092188 L15.0946875,23.9997656 L16.9586719,23.9997656 L16.9586719,24.8660156 L14.8549219,24.8660156 C14.5530926,25.5526772 14.1776464,26.2319771 13.8075869,26.8105475 L13.7798438,26.85375 L15.5974219,26.668125 C15.4435485,26.4043421 15.2757919,26.1405592 15.1073045,25.9096578 L15.0792188,25.8714844 L15.8294531,25.5002344 L15.8688197,25.5524292 C16.3620607,26.2101865 16.8954565,27.0635842 17.0977123,27.6725689 L17.105625,27.6967969 L16.2780469,28.1144531 C16.2239063,27.9133594 16.1310938,27.6735937 16.0073438,27.4338281 L15.6442086,27.4775608 C13.4871961,27.7381131 13.0588011,27.8059865 12.813213,27.9212499 L12.7976068,27.9287544 L12.7821094,27.9365625 L12.7713183,27.8977412 C12.7135553,27.6954398 12.5845133,27.3166112 12.4788242,27.0661803 L12.4716554,27.049308 L12.4572656,27.0161719 C12.6351563,26.9620312 12.7821094,26.7996094 12.96,26.5211719 L12.9772358,26.4947561 C13.1217104,26.26912 13.4535336,25.6555933 13.742723,24.9567844 L13.7518409,24.9346888 L13.7798438,24.8660156 L12.3257813,24.8660156 L12.3257813,23.9997656 L14.1588281,23.9997656 L14.1588281,22.9092188 L12.6351563,22.9092188 L12.6351563,22.0352344 L14.1588281,22.0352344 L14.1588281,20.8828125 L15.0946875,20.8828125 Z M11.7070312,24.9742969 L12.3876562,25.5930469 C11.9894464,26.3744397 11.5109506,27.2288198 11.0656119,27.9647521 L11.0264062,28.029375 L10.2452344,27.410625 L10.2790042,27.3628324 C10.6941471,26.7721135 11.2628719,25.8475594 11.7070312,24.9742969 Z M27.8177344,23.281875 L27.8177344,26.0739844 L28.42875,25.5557813 C28.5138281,25.81875 28.6839844,26.19 28.8,26.3678906 L28.223893,26.8654033 C27.3583568,27.6143393 27.1357871,27.8178465 27.0149959,27.9767256 L27.0063913,27.9881974 L26.9978906,27.9998438 C26.8973437,27.8219531 26.5957031,27.5203125 26.44875,27.4042969 L26.4644463,27.3896509 C26.6474404,27.2159169 26.9129412,26.8599932 26.9203868,26.4104258 L26.9205469,26.3910938 L26.9205469,24.1635938 L26.015625,24.1635938 L26.015625,23.281875 L27.8177344,23.281875 Z M24.3682031,21.5226562 L24.9405469,21.6696094 C24.7703906,23.3711719 24.3991406,24.7324219 23.8267969,25.8229687 C24.1903125,26.4030469 24.6389063,26.8748437 25.1957813,27.2151562 C24.9946875,27.3698437 24.71625,27.6946875 24.5692969,27.9267187 C24.0742969,27.5786719 23.664375,27.1532812 23.3085938,26.6350781 C22.9141406,27.1842187 22.4423438,27.6250781 21.9086719,27.9885937 C21.7771875,27.7642969 21.5219531,27.4549219 21.3363281,27.3002344 C21.9086719,26.9521875 22.4036719,26.4339844 22.8213281,25.7842969 C22.3846542,24.8739428 22.0967123,23.7865268 21.8829508,22.5830457 L21.8732851,22.5282623 L21.8545313,22.4198437 L21.5838281,22.4198437 L21.5838281,21.5535937 L24.2135156,21.5535937 L24.3682031,21.5226562 Z M21.5296875,21.0585938 L21.5296875,21.8784375 L21.0810938,21.8784375 L21.0810938,25.7069531 L21.6766406,25.621875 L21.7230469,26.3875781 L21.0810938,26.5035938 L21.0810938,27.9576563 L20.1839063,27.9576563 L20.1839063,26.6660156 L19.7068631,26.7485353 C19.2169404,26.8329395 18.7512975,26.9117637 18.3325574,26.9782211 L18.2343815,26.993709 L18.1033594,27.0140625 L17.9254688,26.1478125 C17.9686903,26.1432629 18.014588,26.1380442 18.0625717,26.1323532 L18.1510675,26.1216419 L18.4359375,26.0859375 L18.4359375,21.8784375 L18.0105469,21.8784375 L18.0105469,21.0585938 L21.5296875,21.0585938 Z M9.1546875,21.1289063 L9.1546875,26.7208594 C9.1546875,27.2406813 9.06402088,27.5187256 8.74080141,27.6819431 L8.71539737,27.6946307 C8.42604137,27.8368618 7.99309402,27.8681237 7.40535843,27.8668346 L7.31751885,27.8663714 L7.22882812,27.8655469 C7.19789062,27.5948438 7.05867187,27.1385156 6.9271875,26.8678125 L6.96766844,26.8705787 C7.34054615,26.8949354 7.75968224,26.8920708 7.95212996,26.8859277 L7.97221187,26.8852457 L8.01773437,26.8832813 C8.15392663,26.8832813 8.2086996,26.8462725 8.21101667,26.721569 L8.21109375,22.0028906 L2.8125,22.0028906 L2.8125,21.1289063 L9.1546875,21.1289063 Z M33.0152344,21.3946875 L33.0152344,22.2532031 L31.6075781,22.2532031 L31.6075781,23.9857031 L32.8682812,23.9857031 L32.8682812,24.8442188 L31.6075781,24.8442188 L31.6075781,26.9866406 L33.1699219,26.9866406 L33.1699219,27.8451563 L28.4442187,27.8451563 L28.4442187,26.9866406 L29.0165625,26.9866406 L29.0165625,23.4907031 L29.9292187,23.4907031 L29.9292187,26.9866406 L30.6639844,26.9866406 L30.6639844,22.2532031 L28.6453125,22.2532031 L28.6453125,21.3946875 L33.0152344,21.3946875 Z M7.03546875,23.92875 L7.03546875,26.5429688 L4.18148437,26.5429688 L4.18148437,27.0998438 L3.28429687,27.0998438 L3.28429687,23.92875 L7.03546875,23.92875 Z M20.1839063,25.0727344 L19.3176563,25.0727344 L19.3176563,25.9621875 L20.1839063,25.8384375 L20.1839063,25.0727344 Z M6.13054688,24.7176563 L4.18148438,24.7176563 L4.18148438,25.7540625 L6.13054688,25.7540625 L6.13054688,24.7176563 Z M23.9814844,22.4198437 L22.6589062,22.4198437 C22.8135937,23.2860937 23.0224219,24.0982031 23.3163281,24.8175 C23.6179687,24.1136719 23.8422656,23.3092969 23.9814844,22.4198437 Z M10.4617969,23.0329687 C10.9333359,23.2155 11.5768854,23.5251693 11.9144308,23.7781251 L11.9313281,23.7909375 L11.4208594,24.5566406 C11.1331406,24.3131863 10.528761,23.9712153 10.0440088,23.7522277 L10.0206483,23.7417285 L9.97453125,23.7213281 L10.4617969,23.0329687 Z M20.1839063,23.4485156 L19.3176563,23.4485156 L19.3176563,24.2915625 L20.1839063,24.2915625 L20.1839063,23.4485156 Z M7.43765625,22.5520313 L7.43765625,23.3564063 L2.88984375,23.3564063 L2.88984375,22.5520313 L7.43765625,22.5520313 Z M26.9282813,21.0234375 L26.9735688,21.0605871 C27.3854501,21.3993354 27.9087058,21.8538463 28.1747226,22.1739894 L28.1889844,22.1913281 L27.5547656,22.8255469 C27.3312684,22.5182382 26.8554932,22.0595627 26.4634626,21.7001135 L26.4019611,21.6439034 L26.3404688,21.5880469 L26.9282813,21.0234375 Z M20.1839063,21.8784375 L19.3176563,21.8784375 L19.3176563,22.6673437 L20.1839063,22.6673437 L20.1839063,21.8784375 Z M10.9335937,20.9678906 C11.4130003,21.1581313 12.0571184,21.4906229 12.3871493,21.7370153 L12.403125,21.7490625 L11.8694531,22.5070312 C11.5649888,22.2482366 10.9459115,21.8845709 10.4545342,21.6593065 L10.4308594,21.6485156 L10.9335937,20.9678906 Z M28.1742188,11.334375 L28.1742188,15.6375 C28.3475391,15.7292578 28.5307148,15.870293 28.7713809,16.0129707 L28.7964844,16.0277344 C29.3238281,16.3441406 29.9777344,16.4390625 30.7898438,16.4390625 L30.8534868,16.4388595 L30.923436,16.4382115 C31.5657523,16.4303976 32.5445955,16.3693901 33.1839844,16.2808594 L33.1715923,16.3198155 C33.0665646,16.6544309 32.9199069,17.2317007 32.9097656,17.5359375 L32.8582898,17.5399228 L32.8015503,17.544041 C32.2600217,17.5821125 31.3906115,17.6097656 30.7792969,17.6097656 C29.8829366,17.6097656 29.2543808,17.455263 28.6900496,17.1157209 L28.6354714,17.0826372 C28.2811192,16.8658092 27.9781128,16.6183594 27.7839844,16.6183594 C27.5308594,16.6183594 27.1195313,17.240625 26.8136719,17.7679688 L26.04375,16.5972656 C26.3601563,16.2597656 26.7082031,15.9644531 27.0457031,15.7746094 L27.0457031,12.4628906 L26.4339844,12.4628906 L26.4339844,11.334375 L28.1742188,11.334375 Z M19.3060547,7.9453125 L19.3060547,9.50625 L21.6474609,9.50625 L21.6474609,12.5648438 L22.3119141,12.5648438 L22.3119141,13.7460938 L19.9494141,13.7460938 C20.4451172,15.0328125 21.2677734,16.0664063 22.5123047,16.59375 C22.2275391,16.846875 21.8373047,17.3742188 21.6369141,17.7117188 C20.3501953,17.0367188 19.5380859,15.8660156 19.0001953,14.3472656 C18.6310547,15.665625 17.7873047,16.8679688 16.0154297,17.7117188 C15.8466797,17.4269531 15.4353516,16.9734375 15.1611328,16.7625 C16.8213164,16.0002773 17.5615077,14.9486189 17.8626869,13.7814963 L17.8716797,13.7460938 L16.2896484,13.7460938 L16.2896484,12.5648438 L18.0615234,12.5648438 C18.0808594,12.2844727 18.091333,12.0218262 18.0929443,11.7444092 L18.0931641,10.6769531 L16.5533203,10.6769531 L16.5533203,9.50625 L18.0931641,9.50625 L18.0931641,7.9453125 L19.3060547,7.9453125 Z M24.2191406,7.94882813 L25.2527344,8.24414063 C25.1947266,8.45683594 25.1278564,8.66953125 25.052124,8.89035034 L25.03125,8.95078125 L26.4234375,8.95078125 L26.4234375,10.0265625 L24.609375,10.0265625 C24.4594984,10.3263158 24.3096217,10.5976714 24.1418097,10.8585647 L24.1136719,10.9019531 L26.1703125,10.9019531 L26.1703125,11.9566406 L25.4636719,11.9566406 L25.4636719,13.0535156 L26.465625,13.0535156 L26.465625,14.11875 L25.4636719,14.11875 L25.4636719,15.5953125 L26.2335938,15.0257813 L26.2430477,15.0638936 C26.3202837,15.3674148 26.4707908,15.7832191 26.5921875,15.9855469 L26.4042999,16.1248825 C24.9495944,17.2053628 24.6424025,17.4753515 24.4771751,17.6847498 L24.4617188,17.7046875 L24.4511719,17.6414063 C24.4441406,17.6554688 24.4417969,17.6695313 24.4410156,17.6835938 L24.440625,17.7046875 C24.3351563,17.4832031 24.0292969,17.0613281 23.8394531,16.903125 L23.8558067,16.8896278 C24.0729624,16.7069729 24.3596174,16.3294299 24.3666644,15.7947401 L24.3667969,14.11875 L23.428125,14.11875 L23.428125,13.0535156 L24.3667969,13.0535156 L24.3667969,11.9566406 L23.8816406,11.9566406 L23.8816406,11.2394531 C23.8289063,11.334375 23.7550781,11.41875 23.6917969,11.4820313 C23.6074219,11.2289063 23.3121094,10.6171875 23.1328125,10.3535156 C23.6179688,9.75234375 23.9871094,8.85585938 24.2191406,7.94882813 Z M11.7140625,8.26171875 L11.7140625,9.4640625 L4.0359375,9.4640625 L4.0359375,16.1507812 L11.9882812,16.1507812 L11.9882812,17.353125 L2.8125,17.353125 L2.8125,8.26171875 L11.7140625,8.26171875 Z M29.7457031,7.875 L30.9902344,8.09648438 C30.9220853,8.38855168 30.8539363,8.6716323 30.7691965,8.96231704 L30.7476562,9.03515625 L32.9308594,9.03515625 L32.9308594,10.1320313 L30.3890625,10.1320313 C30.2360369,10.5486009 30.069306,10.9583178 29.9109645,11.3335638 L29.8624421,11.4481192 L29.7984375,11.5980469 L30.4207031,11.5980469 L30.4207031,10.490625 L31.5914062,10.490625 L31.5914062,11.5980469 L32.7515625,11.5980469 L32.7515625,12.6210938 L31.5914062,12.6210938 L31.5914062,13.6125 L33.0363281,13.6125 L33.0363281,14.709375 L31.5914062,14.709375 L31.5914062,16.1226563 L30.4207031,16.1226563 L30.4207031,14.709375 L28.4695312,14.709375 L28.4695312,13.6125 L30.4207031,13.6125 L30.4207031,12.6210938 L29.6312717,12.6214961 C29.2788398,12.627025 28.9292127,12.6892428 28.8386719,12.7898438 L28.8277562,12.7507144 C28.7620441,12.5196617 28.6141046,12.0683364 28.497388,11.7725422 L28.4835391,11.7378175 L28.4695312,11.7035156 C28.644065,11.655034 28.774027,11.4282652 28.9167854,11.1051639 L28.9394409,11.0533592 L28.9580666,11.0100323 L28.9725293,10.975037 C29.0320695,10.8279506 29.1249477,10.5646211 29.2275129,10.2382637 L29.2406571,10.1962628 L29.2605469,10.1320313 L28.4167969,10.1320313 L28.4167969,9.03515625 L29.5347656,9.03515625 C29.6191406,8.65546875 29.6929687,8.26523438 29.7457031,7.875 Z M15.0978516,7.97695313 L15.0978516,10.265625 L16.1208984,10.265625 L16.1208984,11.4574219 L15.0978516,11.4574219 L15.0978516,13.7882813 L16.0365234,13.3875 L16.3318359,14.4949219 L16.0652197,14.6253757 C15.2173555,15.039327 14.3401433,15.4591685 13.566317,15.8232737 L13.3255422,15.9363297 L13.1150391,16.0347656 L12.6087891,14.7691406 C12.89715,14.670274 13.2369986,14.5392276 13.6082245,14.3961117 L13.728603,14.3497193 L13.9271484,14.2734375 L13.9271484,11.4574219 L12.7986328,11.4574219 L12.7986328,10.265625 L13.9271484,10.265625 L13.9271484,7.97695313 L15.0978516,7.97695313 Z M9.478125,9.79101562 L10.6699219,10.265625 C10.1425781,11.1304687 9.50976562,11.953125 8.803125,12.7125 L8.87587506,12.7731174 C9.71016631,13.4698744 10.4623932,14.1537164 10.9747502,14.7132511 L10.996875,14.7375 L10.0160156,15.665625 C9.57549694,15.1484944 8.90889806,14.5009329 8.15833543,13.8097894 L8.05851818,13.7180675 L7.92773437,13.5984375 C7.06289062,14.4210937 6.1453125,15.1277344 5.22773437,15.6867187 C5.01679687,15.4335937 4.55273437,14.9484375 4.26796875,14.7164062 C5.22773437,14.2207031 6.15585937,13.5457031 6.99960937,12.7863281 L6.88239404,12.6851691 C6.15875317,12.0619892 5.42157605,11.4518943 4.75433624,10.9300107 L4.70039062,10.8878906 L5.57578125,10.1179687 L5.80878183,10.3003183 C6.44153646,10.7945312 7.16132812,11.3507812 7.86445312,11.9320312 C8.48320312,11.2720312 9.01120312,10.5716979 9.44845312,9.84089051 L9.478125,9.79101562 Z M20.4767578,10.6769531 L19.3060547,10.6769531 L19.3060547,11.6789063 C19.3060547,11.8757813 19.3013672,12.0726563 19.2951172,12.2695313 L19.2918764,12.3679688 L19.2849609,12.5648438 L20.4767578,12.5648438 L20.4767578,10.6769531 Z M27.4992188,8.1703125 L27.5264604,8.24223236 C27.7680125,8.88357165 28.0318451,9.68020793 28.1568656,10.2383595 L28.1636719,10.2691406 L27.0773438,10.6171875 C26.9736626,10.0469412 26.7170957,9.17092341 26.4779768,8.51015493 L26.465625,8.47617188 L27.4992188,8.1703125 Z" id="形状结合" fill="#FFFFFF" fill-rule="nonzero"></path>
                    </g>
                </g>
            </g>
        </g>
    </g>
</svg>