<?xml version="1.0" encoding="UTF-8"?>
<svg width="32px" height="32px" viewBox="0 0 32 32" version="1.1" xmlns="http://www.w3.org/2000/svg" xmlns:xlink="http://www.w3.org/1999/xlink">
    <!-- Generator: Sketch 58 (84663) - https://sketch.com -->
    <title>分组</title>
    <desc>Created with Sketch.</desc>
    <g id="页面-1" stroke="none" stroke-width="1" fill="none" fill-rule="evenodd">
        <g id="下载加载" transform="translate(-1314.000000, -714.000000)">
            <g id="编组-13" transform="translate(1232.000000, 430.000000)">
                <g id="编组-2备份" transform="translate(78.000000, 0.000000)">
                    <g id="分组-8" transform="translate(4.000000, 284.000000)">
                        <g id="分组">
                            <rect id="矩形" stroke="#979797" stroke-width="0.5" fill="#D8D8D8" opacity="0" x="0.25" y="0.25" width="31.5" height="31.5"></rect>
                            <path d="M12.5313496,25.551168 L12.5821514,25.5836488 C13.3840325,26.0981101 14.4615104,26.8721264 15,27.4232481 L14.0100956,28.5 C13.521254,27.9371524 12.4458023,27.092881 11.6147715,26.5055617 L12.5313496,25.551168 Z M23.221875,23.9048884 L23.221875,28.4388948 L21.7959375,28.4388948 L21.7959375,27.9500531 L19.1878125,27.9500531 L19.1878125,28.5 L17.810625,28.5 L17.810625,23.9048884 L23.221875,23.9048884 Z M27.4883532,17.6235798 L28.5,18.2471596 L28.3588707,18.6462245 C27.974991,19.7290484 27.5343987,20.9439044 27.1226977,21.8785948 C28.097779,22.9790298 28.2806067,23.9449671 28.2806067,24.7397257 C28.2806067,25.6112701 28.0894713,26.2071886 27.6480679,26.5274812 L27.6346154,26.5371027 C27.4152221,26.6960544 27.1470748,26.7816438 26.8301733,26.830552 C26.562026,26.8672332 26.208559,26.8794602 25.8916576,26.8550061 C25.8672806,26.4759674 25.757584,25.9012959 25.5381907,25.5100301 L25.5866653,25.5142123 C25.8356173,25.5344842 26.0604501,25.5344842 26.2207476,25.5344842 C26.3856988,25.5344842 26.5278711,25.5002077 26.6582742,25.42061 L26.6717226,25.4122137 C26.8789274,25.2899431 26.9520585,24.9842668 26.9520585,24.5685469 C26.9520585,23.9082859 26.6960997,23.027938 25.7697725,22.0497736 C26.1110509,21.1571986 26.4888949,19.910039 26.7692308,18.9807829 L25.404117,18.9807829 L25.404117,28.4689774 L24.1365114,28.4689774 L24.1365114,17.672488 L27.2811484,17.672488 L27.4883532,17.6235798 Z M12.2624867,21.5745273 L12.2624867,23.8136819 C12.2624867,25.3798665 11.5414453,27.2641824 8.59617428,28.4632925 C8.41285866,28.1329255 7.99734325,27.5945495 7.70403826,27.3253615 C10.6248672,26.4076752 10.8448459,24.9516129 10.8448459,23.8014461 L10.8448459,21.5745273 L12.2624867,21.5745273 Z M7.97290117,17.8058954 L7.97290117,19.1640712 L6.68969182,19.1640712 L6.68969182,26.4933259 C6.68969182,27.2397108 6.55526036,27.6557286 6.09086079,27.8882091 C5.65326866,28.1250314 5.02110636,28.1899665 4.15006948,28.18282 L4.15006948,28.18282 L4.06216791,28.1818687 C4.0010627,27.7658509 3.75664187,27.1051168 3.52444208,26.7135706 C3.90053478,26.7206753 4.26426654,26.7236547 4.54386425,26.7249041 L4.54386425,26.7249041 L4.99096706,26.7258065 C5.18650372,26.7135706 5.24760893,26.6646274 5.24760893,26.4810901 L5.24760893,26.4810901 L5.24760893,19.1640712 L3.5,19.1640712 L3.5,17.8058954 L7.97290117,17.8058954 Z M21.7959375,25.2003188 L19.1878125,25.2003188 L19.1878125,26.6912859 L21.7959375,26.6912859 L21.7959375,25.2003188 Z M14.8655685,17.5 L14.8655685,18.7602892 L12.1402763,18.7602892 C12.0432269,19.0409933 11.9461774,19.302645 11.849128,19.5536499 L11.849128,19.5536499 L11.8103082,19.6535039 L14.41339,19.6535039 L14.41339,25.4899889 L13.0079702,25.4899889 L13.0079702,20.987208 L10.0260361,20.987208 L10.0260361,25.5389321 L8.68172157,25.5389321 L8.68172157,19.6535039 L10.4293305,19.6535039 C10.5026567,19.3598443 10.563762,19.0539488 10.6126461,18.7602892 L10.6126461,18.7602892 L8.20510096,18.7602892 L8.20510096,17.5 L14.8655685,17.5 Z M20.7968581,17 C20.9723727,17.3619208 21.1478873,17.7864442 21.2859588,18.1671457 L21.3819068,18.4427925 L23.441766,18.4427925 L23.441766,19.7510873 L22.0157096,19.7510873 L23.0029794,19.9711743 C22.7982124,20.4406932 22.6012459,20.9415134 22.4058397,21.3859913 L22.25948,21.7074161 L23.6855363,21.7074161 L23.6855363,23.027938 L17.25,23.027938 L17.25,21.7074161 L18.81013,21.7074161 C18.708559,21.2896584 18.5308099,20.7360445 18.3262572,20.2659256 L18.2007042,19.9956284 L19.187974,19.7510873 L17.5547129,19.7510873 L17.5547129,18.4427925 L19.8583424,18.4427925 C19.7852113,18.176854 19.684656,17.8971601 19.5772447,17.6346606 L19.4683099,17.3790387 L20.7968581,17 Z M21.552546,19.7510873 L19.4804984,19.7510873 C19.7312336,20.2227023 19.9551043,20.8200812 20.0907059,21.2814298 L20.1508667,21.4995561 L19.4195558,21.7074161 L20.8699892,21.7074161 C21.125948,21.1327445 21.3940953,20.350213 21.552546,19.7510873 Z M28.5,3.5 L28.5,12.9299284 L28.4998229,12.9755012 C28.494017,13.7120472 28.3443236,14.0676115 27.8899829,14.2944659 C27.4263699,14.5137665 26.7309503,14.5625 25.7793236,14.5625 C25.7183219,14.1848155 25.4865154,13.5634637 25.2913099,13.1735958 L25.4125806,13.177885 C26.0185171,13.1979626 26.6097094,13.1979626 26.8041524,13.1979626 C27.008213,13.1979626 27.082364,13.1272014 27.0847029,12.9276625 L27.0847603,3.5 L28.5,3.5 Z M13.9375,3.5 L13.9375,14.46875 L12.3505117,14.46875 L12.3505117,13.8228125 L5.01374269,13.8228125 L5.01374269,14.46875 L3.5,14.46875 L3.5,3.5 L13.9375,3.5 Z M21.8264127,8.55609857 L21.8264127,9.6404185 L24.0224743,9.6404185 L24.0224743,10.8953056 L21.8264127,10.8953056 L21.8264127,12.3207599 C22.5309824,12.1979109 23.2560556,12.0750619 23.9640426,11.9615973 L24.1566781,11.9308921 L24.2298801,13.1735958 L23.9535749,13.2270224 C22.2677454,13.5519162 20.4983747,13.8735837 19.0405026,14.1331459 L18.8623706,14.164828 L18.1297089,14.2944659 L17.8125,12.9542952 L17.9236619,12.9393142 C18.3736898,12.8779648 18.8876232,12.7997293 19.4417444,12.7125025 L19.9602686,12.6302514 L20.447774,12.5522439 L20.447774,10.8953056 L18.2273116,10.8953056 L18.2273116,9.6404185 L20.447774,9.6404185 L20.447774,8.55609857 L21.8264127,8.55609857 Z M12.3505117,4.986875 L5.01374269,4.986875 L5.01374269,12.47 L12.3505117,12.47 L12.3505117,4.986875 Z M26.0965325,4.49903634 L26.0965325,11.8577919 L24.7544949,11.8577919 L24.7544949,4.49903634 L26.0965325,4.49903634 Z M11.1663743,6.425 L11.1663743,11.05625 L6.18567251,11.05625 L6.18567251,6.425 L11.1663743,6.425 Z M9.70146199,7.6925 L7.55292398,7.6925 L7.55292398,9.8009375 L9.70146199,9.8009375 L9.70146199,7.6925 Z M24.2786815,4.08480176 L24.2786815,5.32750551 L22.5584332,5.32750551 L22.5986674,5.37791523 C23.2179164,6.15664003 23.9403063,7.19671202 24.2447043,7.900216 L24.2542808,7.92256333 L23.15625,8.64138216 C23.0932052,8.48398934 23.0120613,8.3085227 22.9206123,8.12276524 L22.9052768,8.09171171 L22.8756421,8.03221366 L22.2996529,8.08035015 C19.4460087,8.32004821 18.9625043,8.38212004 18.6299229,8.51954846 L18.621798,8.49212954 C18.5451882,8.23697971 18.3760335,7.75973155 18.239711,7.39645506 L18.202666,7.29842364 L18.1663099,7.20374449 C18.3493151,7.15501101 18.5445205,6.96007709 18.7275257,6.69204295 L18.7406721,6.67384783 C18.8746684,6.48563718 19.1666045,5.9976622 19.4379305,5.42576176 L19.456396,5.38664103 L19.4839469,5.32750551 L17.9345034,5.32750551 L17.9345034,4.08480176 L24.2786815,4.08480176 Z M22.5218322,5.32750551 L21.0577911,5.32750551 C20.761255,5.89606278 20.3955271,6.48765188 20.0278773,7.00150854 L19.9963613,7.04536068 L22.2046233,6.92352698 C21.9833534,6.58626915 21.7509672,6.26011228 21.5286867,5.96624912 L21.4970034,5.92449064 L22.5218322,5.32750551 Z" id="形状结合" fill="#FFFFFF" fill-rule="nonzero"></path>
                        </g>
                    </g>
                </g>
            </g>
        </g>
    </g>
</svg>