<?xml version="1.0" encoding="UTF-8"?>
<svg width="25px" height="25px" viewBox="0 0 25 25" version="1.1" xmlns="http://www.w3.org/2000/svg" xmlns:xlink="http://www.w3.org/1999/xlink">
    <!-- Generator: Sketch 58 (84663) - https://sketch.com -->
    <title>分组</title>
    <desc>Created with Sketch.</desc>
    <g id="页面-1" stroke="none" stroke-width="1" fill="none" fill-rule="evenodd">
        <g id="下载" transform="translate(-1318.000000, -518.000000)">
            <g id="编组-2备份" transform="translate(1310.000000, 470.000000)">
                <g id="编组-5" transform="translate(8.000080, 48.200060)">
                    <g id="编组-4" transform="translate(2.000000, 2.000000)">
                        <path d="M7.33826319,9.14252772 C5.36038324,10.2440547 4,10.414463 4,13.0619188 L4,13.0619188 C4,16.78333 6.68623605,19.79994 10,19.79994 L10,19.79994 C13.3137639,19.79994 16,16.78333 16,13.0619188 L16,13.0619188 C16,10.414463 14.6398097,10.2440547 12.6617368,9.14252772 L12.6617368,9.14252772 C11.9564672,9.62388332 11.0251101,7.79994 10,7.79994 L10,7.79994 C8.97508279,7.79994 8.04353278,9.62388332 7.33826319,9.14252772" id="Fill-1" fill="#B9D2F9"></path>
                        <path d="M13.4800202,0.79994 C13.7407758,0.79994 13.9521612,1.01788685 13.9521612,1.28673645 C13.9521612,1.55558605 13.7407758,1.7735329 13.4800202,1.7735329 C13.2761502,1.7735329 13.1023361,1.64030674 13.0362011,1.45368873 C12.2060966,1.61595018 11.6256862,1.93885071 11.3075466,2.41403487 C11.2153406,2.5518968 11.1542473,2.69028526 11.1144161,2.82006282 C12.3329332,3.25724893 13.2060453,4.45180586 13.2060453,5.85668098 C13.2060453,5.88867699 13.2022166,5.91610214 13.2014106,5.94705932 C17.1584887,7.38251672 20,11.2592282 20,15.8300869 C20,16.1573188 19.9832746,16.4803954 19.955063,16.79994 C14.977733,16.7772935 10.8534005,13.0670028 9.99979849,8.18366359 C9.14639798,13.0670028 5.02206549,16.7772935 0.0449370277,16.79994 C0.0163224181,16.4803954 0,16.1573188 0,15.8300869 C0,11.1944051 2.92030227,7.26824525 6.96544081,5.88348283 C6.96544081,5.87392558 6.96403023,5.86603046 6.96403023,5.85668098 C6.96403023,4.44986649 7.83955464,3.25395127 9.05947638,2.81654873 C9.02069373,2.6871982 8.95921276,2.54817375 8.86637783,2.41029507 C8.53977432,1.92528838 7.93936561,1.59970052 7.07976952,1.44074658 C7.01844024,1.63423586 6.84153121,1.7735329 6.63306801,1.7735329 C6.37211083,1.7735329 6.16072544,1.55558605 6.16072544,1.28673645 C6.16072544,1.01788685 6.37211083,0.79994 6.63306801,0.79994 C6.86784802,0.79994 7.06260404,0.976627291 7.09907617,1.20807113 L6.889,1.17394 L7.10957597,1.21017675 C8.03851442,1.38036431 8.69224104,1.74052044 9.05458942,2.28231103 C9.16073385,2.44105333 9.23122561,2.60006444 9.2772347,2.74937619 C9.53383927,2.67678364 9.80513462,2.63879645 10.0850378,2.63879645 C10.3668354,2.63879645 10.6399084,2.6772996 10.8995778,2.74948195 C10.9450081,2.60076493 11.0155764,2.44140298 11.1219547,2.28231103 C11.4772217,1.75110853 12.1125897,1.39451058 13.0128215,1.22037216 L13.0076776,1.28673645 C13.0076776,1.01788685 13.2192645,0.79994 13.4800202,0.79994 Z" id="形状结合" fill="#FFFFFF"></path>
                    </g>
                </g>
            </g>
        </g>
    </g>
</svg>