<?xml version="1.0" encoding="UTF-8"?>
<svg width="32px" height="32px" viewBox="0 0 32 32" version="1.1" xmlns="http://www.w3.org/2000/svg" xmlns:xlink="http://www.w3.org/1999/xlink">
    <!-- Generator: Sketch 58 (84663) - https://sketch.com -->
    <title>疫情订阅-鼠标经过</title>
    <desc>Created with Sketch.</desc>
    <g id="页面-1" stroke="none" stroke-width="1" fill="none" fill-rule="evenodd">
        <g id="疫情专题" transform="translate(-1326.000000, -434.000000)">
            <g id="编组-8" transform="translate(1296.000000, 430.000000)">
                <g id="编组-2备份" transform="translate(26.000000, 0.000000)">
                    <g id="分组-3" transform="translate(4.000000, 4.000000)">
                        <g id="分组">
                            <rect id="矩形" stroke="#979797" stroke-width="0.5" fill="#D8D8D8" opacity="0" x="0.25" y="0.25" width="31.5" height="31.5"></rect>
                            <path d="M10.641875,3.5625 C10.8490625,3.976875 11.080625,4.48875 11.226875,4.8909375 L14.9196875,4.8909375 L14.9196875,6.219375 L6.815,6.219375 L6.81496447,8.70352861 C6.81475128,8.89689413 6.81325893,9.10433036 6.8028125,9.3028125 C8.0825,8.900625 8.2409375,8.38875 8.2409375,7.7915625 L8.2409375,6.7190625 L12.8965625,6.7190625 L12.8966218,8.27965625 C12.8980389,8.56605179 12.9260156,8.68125 13.10375,8.68125 L13.7740625,8.68125 C13.9690625,8.68125 14.298125,8.656875 14.46875,8.58375 C14.493125,8.97375 14.541875,9.5221875 14.5784375,9.875625 C14.3834375,9.94875 14.07875,9.973125 13.810625,9.973125 L13.00625,9.973125 C11.7509375,9.973125 11.4828125,9.485625 11.4828125,8.2425 L11.4828125,7.95 L9.569375,7.95 C9.545,8.8396875 9.2403125,9.705 8.009375,10.265625 L12.786875,10.265625 L13.030625,10.216875 L13.8959375,10.5825 C13.469375,11.7646875 12.7625,12.654375 11.885,13.3125 C12.7015625,13.55625 13.664375,13.6903125 14.7490625,13.7634375 C14.4809375,14.068125 14.1275,14.6409375 13.956875,15.0309375 L13.8660198,15.0213158 C12.4934168,14.8725578 11.3646069,14.5949395 10.4225,14.165625 C9.4475,14.58 8.3384375,14.8603125 7.131875,15.0553125 C7.0221875,14.6896875 6.7540625,14.1534375 6.5225,13.8365625 C7.44875,13.7390625 8.3140625,13.5684375 9.081875,13.3246875 C8.52125,12.849375 8.0459375,12.264375 7.668125,11.5696875 L8.03375,11.4721875 L7.3878125,11.4721875 L7.3878125,10.265625 L7.4975,10.265625 C7.326875,9.9853125 7.0221875,9.631875 6.8028125,9.4125 C6.7296875,11.2771875 6.3884375,13.5928125 5.10875,15.0796875 C4.8528125,14.82375 4.2434375,14.409375 3.9021875,14.23875 C4.7065625,13.3246875 5.0721875,12.1546875 5.2428125,10.996875 L5.0841443,11.0995844 C4.68863971,11.3549935 4.30150735,11.5997978 3.914375,11.825625 L3.5,10.485 L3.54554923,10.4643724 C4.02953462,10.2438519 4.692125,9.9005625 5.3890625,9.534375 C5.40125,9.2053125 5.40125,8.8884375 5.40125,8.58375 L5.40125,8.169375 L4.52375,8.5715625 C4.3409375,7.99875 3.8778125,7.0603125 3.5121875,6.3778125 L4.6578125,5.878125 L4.70814368,5.96800337 C4.92917092,6.36201849 5.18622768,6.81308036 5.40125,7.243125 L5.40125,4.8909375 L9.6059375,4.8909375 C9.4840625,4.561875 9.325625,4.2084375 9.1915625,3.9159375 L10.641875,3.5625 Z M11.958125,11.4721875 L9.0453125,11.4721875 C9.3865625,11.99625 9.861875,12.3984375 10.4590625,12.7396875 C11.0440625,12.3984375 11.5559375,11.99625 11.958125,11.4721875 L11.958125,11.4721875 Z" id="疫" fill="#FFFFFF" fill-rule="nonzero"></path>
                            <path d="M7.05875,19.2259375 C6.6321875,18.6896875 5.718125,17.873125 5.06,17.3125 L4.0971875,18.2265625 L4.35493828,18.4753332 C4.96213586,19.0636931 5.68259973,19.7818949 6.0228125,20.2496875 L7.05875,19.2259375 Z M6.6809375,25.6121875 L6.6809375,20.9321875 L3.5,20.9321875 L3.5,22.3215625 L5.279375,22.3215625 L5.279375,26.0021875 C5.279375,26.550625 4.865,26.965 4.596875,27.1478125 C4.8284375,27.428125 5.1696875,28.0375 5.2671875,28.37875 L5.28352548,28.3611155 C5.55473938,28.0715178 6.05279375,27.6960062 8.71625,25.8925 C8.57,25.5878125 8.375,24.9784375 8.3140625,24.5640625 L6.6809375,25.6121875 Z M14.7003125,18.116875 L14.7003125,19.579375 L12.7259375,19.579375 L12.7259375,26.696875 C12.7259375,27.5378125 12.543125,27.964375 11.9946875,28.2203125 C11.44625,28.47625 10.641875,28.5128125 9.49625,28.5128125 C9.4353125,28.0740625 9.155,27.355 8.9234375,26.940625 L8.96966079,26.9441941 C9.72706175,27.001075 10.598,26.9891312 10.836875,26.9771875 L10.858961,26.9758869 C11.0865327,26.9603615 11.178125,26.885125 11.178125,26.6725 L11.178125,19.579375 L7.9484375,19.579375 L7.9484375,18.116875 L14.7003125,18.116875 Z" id="订" fill="#FFFFFF" fill-rule="nonzero"></path>
                            <path d="M18.048125,9.4353125 C18.3040625,8.496875 18.4990625,7.0465625 18.5234375,6.035 L17.4996875,5.9009375 C17.43875,6.888125 17.2559375,8.253125 17,9.081875 L18.048125,9.4353125 Z M22.679375,12.0678125 L22.679375,11.5071875 L26.3234375,11.5071875 L26.3234375,12.0678125 L22.679375,12.0678125 Z M26.3234375,9.910625 L26.3234375,10.4834375 L22.679375,10.4834375 L22.679375,9.910625 L26.3234375,9.910625 Z M27.6884375,8.8503125 L21.33875,8.8503125 L21.33875,14.8953125 L22.679375,14.8953125 L22.679375,13.0671875 L26.3234375,13.0671875 L26.3234375,13.469375 C26.3234375,13.6129659 26.2646958,13.66257 26.1010733,13.6643264 L25.8263889,13.6661307 C25.5723049,13.6671703 25.199806,13.6647953 24.8609375,13.64 C25.0315625,13.9934375 25.2021875,14.5175 25.2509375,14.8709375 L25.4745795,14.8707818 C26.2011596,14.8692252 26.7400284,14.8521023 27.1278125,14.66375 C27.5665625,14.46875 27.6884375,14.1275 27.6884375,13.49375 L27.6884375,8.8503125 Z M25.19,7.35125 L28.505,7.35125 L28.505,8.3871875 L20.5221875,8.3871875 L20.5221875,7.35125 L23.751875,7.35125 L23.751875,6.8271875 L21.2290625,6.8271875 L21.2534375,6.888125 L20.3028125,7.35125 C20.2175,6.9978125 20.046875,6.4859375 19.851875,6.010625 L19.851875,14.8709375 L18.5478125,14.8709375 L18.5478125,3.5 L19.851875,3.5 L19.851875,5.45 L20.5465625,5.1575 L20.5740704,5.21423805 C20.8223513,5.73001714 21.0880357,6.38016741 21.2290625,6.815 L21.2290625,5.8521875 L23.751875,5.8521875 L23.751875,5.3646875 L20.9,5.3646875 L20.9,4.32875 L23.751875,4.32875 L23.751875,3.5 L25.19,3.5 L25.19,4.32875 L28.139375,4.32875 L28.139375,5.3646875 L25.19,5.3646875 L25.19,5.8521875 L27.8103125,5.8521875 L27.8103125,6.8271875 L25.19,6.8271875 L25.19,7.35125 Z" id="情" fill="#FFFFFF" fill-rule="nonzero"></path>
                            <path d="M18.09375,28.4853125 L19.5196875,28.4853125 L19.5196875,20.039375 L18.09375,20.039375 L18.09375,28.4853125 Z M28.5140625,17.7115625 L28.5139294,27.0260612 C28.509558,27.669686 28.3963312,27.9902562 28.0021875,28.2171875 C27.6121875,28.424375 27.0271875,28.4609375 26.235,28.4609375 C26.1984375,28.180625 26.0765625,27.7784375 25.9546875,27.4371875 C25.8328125,27.47375 25.69875,27.4859375 25.5403125,27.4859375 L24.699375,27.4859375 C23.675625,27.4859375 23.45625,27.1325 23.45625,26.0721875 L23.45625,24.4878125 L22.944375,24.4878125 C22.725,25.9015625 22.2009375,27.0228125 20.5434375,27.76625 C20.3971875,27.4371875 20.0315625,26.9253125 19.75125,26.69375 C21.091875,26.20625 21.481875,25.42625 21.6646875,24.4878125 L20.506875,24.4878125 L20.506875,21.160625 L21.60375,21.160625 C21.4209375,20.74625 21.1284375,20.2465625 20.82375,19.844375 L21.9328125,19.3446875 C22.310625,19.795625 22.7128125,20.429375 22.8834375,20.868125 L22.2740625,21.160625 L23.480625,21.160625 C23.84625,20.6121875 24.23625,19.86875 24.4678125,19.3203125 L25.869375,19.6371875 L25.7505469,19.8381146 C25.4732812,20.306167 25.1960156,20.7660547 24.91875,21.160625 L26.0278125,21.160625 L26.0278125,24.4878125 L24.7115625,24.4878125 L24.711617,26.0819089 C24.7129566,26.3386704 24.7400548,26.3758836 24.9115217,26.376855 L25.381875,26.376875 C25.5646875,26.376875 25.6134375,26.255 25.65,25.450625 C25.869375,25.6334375 26.3934375,25.8284375 26.7225,25.9015625 L26.7180435,25.9481171 C26.6557175,26.578176 26.5350446,26.9554911 26.3446875,27.1934375 L26.9053125,27.1934375 C27.0759375,27.1934375 27.1246875,27.1325 27.1246875,26.9740625 L27.1246875,18.9790625 L21.36,18.9790625 L21.36,17.7115625 L28.5140625,17.7115625 Z M24.6871875,22.30625 L21.774375,22.30625 L21.774375,23.354375 L24.6871875,23.354375 L24.6871875,22.30625 Z M18.2765625,17.894375 L19.3734375,17.1875 C19.8609375,17.6533333 20.4447338,18.2828704 20.7738799,18.7850823 L20.8846875,18.966875 L19.7025,19.746875 C19.4802907,19.3024564 18.973286,18.6559249 18.4925603,18.1263312 L18.3141275,17.9338382 L18.2765625,17.894375 L19.3734375,17.1875 Z" id="阅" fill="#FFFFFF" fill-rule="nonzero"></path>
                        </g>
                    </g>
                </g>
            </g>
        </g>
    </g>
</svg>