<?xml version="1.0" encoding="UTF-8"?>
<svg width="44px" height="44px" viewBox="0 0 44 44" version="1.1" xmlns="http://www.w3.org/2000/svg" xmlns:xlink="http://www.w3.org/1999/xlink">
    <!-- Generator: Sketch 52 (66869) - http://www.bohemiancoding.com/sketch -->
    <title>文件-犯罪证据</title>
    <desc>Created with Sketch.</desc>
    <g id="Page-1" stroke="none" stroke-width="1" fill="none" fill-rule="evenodd">
        <g id="文件-犯罪证据">
            <path d="M35.6075759,26.2966841 L35.6573825,26.3451619 L39.4825349,30.0343223 L32.7237696,36.6176071 L28.8537912,32.8751212 L35.6075759,26.2966841 Z M42.4012058,16 C41.9927911,16 41.5893571,16.1502812 41.2755751,16.4508435 L35.6075759,21.9094435 L25.4669375,31.779523 C24.8443542,32.3854954 24.8443542,33.3744425 25.4669375,33.980415 L32.7287502,41 L44,30.0294745 L37.9036634,24.1442699 L43.5318173,18.6565833 C44.1544007,18.0506108 44.1544007,17.0665115 43.5318173,16.4556913 C43.2180353,16.155129 42.8096206,16 42.4012058,16 Z" id="形状" fill="#5090F1" fill-rule="nonzero"></path>
            <path d="M4.70204082,40.8571429 C3.83510204,40.8571429 3.13469388,40.1549107 3.13469388,39.2857143 L3.13469388,4.71428571 C3.13469388,3.84508929 3.83510204,3.14285714 4.70204082,3.14285714 L31.2979592,3.14285714 C32.164898,3.14285714 32.8653061,3.84508929 32.8653061,4.71428571 L32.8653061,17.2857143 C32.8653061,18.1549107 33.5657143,18.8571429 34.4326531,18.8571429 C35.2995918,18.8571429 36,18.1549107 36,17.2857143 L36,3.14285714 C36,1.409375 34.5942857,0 32.8653061,0 L3.13469388,0 C1.40571429,0 0,1.409375 0,3.14285714 L0,40.8571429 C0,42.590625 1.40571429,44 3.13469388,44 L26.6693878,44 C27.5363265,44 28.2367347,43.2977679 28.2367347,42.4285714 C28.2367347,41.559375 27.5363265,40.8571429 26.6693878,40.8571429 L4.70204082,40.8571429 Z" id="路径" fill="#4E4F51"></path>
            <path d="M27.4285714,10 L8.57142857,10 C7.70223214,10 7,10.7022321 7,11.5714286 C7,12.440625 7.70223214,13.1428571 8.57142857,13.1428571 L27.4285714,13.1428571 C28.2977679,13.1428571 29,12.440625 29,11.5714286 C29,10.7022321 28.2977679,10 27.4285714,10 Z M27.4285714,19.4285714 L8.57142857,19.4285714 C7.70223214,19.4285714 7,20.1308036 7,21 C7,21.8691964 7.70223214,22.5714286 8.57142857,22.5714286 L27.4285714,22.5714286 C28.2977679,22.5714286 29,21.8691964 29,21 C29,20.1308036 28.2977679,19.4285714 27.4285714,19.4285714 Z M18,28.8571429 L8.57142857,28.8571429 C7.70223214,28.8571429 7,29.559375 7,30.4285714 C7,31.2977679 7.70223214,32 8.57142857,32 L18,32 C18.8691964,32 19.5714286,31.2977679 19.5714286,30.4285714 C19.5714286,29.559375 18.8691964,28.8571429 18,28.8571429 Z" id="形状" fill="#4E4F51" fill-rule="nonzero"></path>
        </g>
    </g>
</svg>