<?xml version="1.0" encoding="UTF-8"?>
<svg width="43px" height="43px" viewBox="0 0 43 43" version="1.1" xmlns="http://www.w3.org/2000/svg" xmlns:xlink="http://www.w3.org/1999/xlink">
    <!-- Generator: Sketch 52 (66869) - http://www.bohemiancoding.com/sketch -->
    <title>密码(2)</title>
    <desc>Created with Sketch.</desc>
    <g id="Page-1" stroke="none" stroke-width="1" fill="none" fill-rule="evenodd">
        <g id="密码(2)">
            <path d="M21.375,34.7083333 C19.775,34.7083333 18.7083333,33.6416666 18.7083333,32.0416667 L18.7083333,26.7083333 C18.7083333,25.375 19.775,24.0416666 21.375,24.0416667 C22.7083333,24.0416667 24.0416667,25.1083334 24.0416667,26.7083333 L24.0416667,32.0416667 C24.0416667,33.6416667 22.975,34.7083334 21.375,34.7083333 Z" id="路径" fill="#5090F1"></path>
            <path d="M41.375,29.375 C42.175,29.375 42.7083333,28.8416667 42.7083333,28.0416667 L42.7083333,21.375 C42.7083333,18.4416667 40.3083333,16.0416667 37.375,16.0416667 L34.7083333,16.0416667 L34.7083333,13.375 C34.7083333,5.90833331 28.8416666,0.0416666875 21.375,0.0416666875 C13.9083334,0.0416666875 8.04166669,5.90833331 8.04166669,13.375 L8.04166669,16.0416667 L5.375,16.0416667 C2.44166669,16.0416667 0.0416666875,18.4416667 0.0416666875,21.375 L0.0416666875,37.375 C0.0416666875,40.3083333 2.44166669,42.7083333 5.375,42.7083333 L37.375,42.7083333 C40.3083333,42.7083333 42.7083333,40.3083333 42.7083333,37.375 L42.7083333,36.0416667 C42.7083333,35.2416667 42.175,34.7083334 41.375,34.7083333 C40.575,34.7083332 40.0416667,35.2416666 40.0416667,36.0416667 L40.0416667,37.375 C40.0416667,38.975 38.975,40.0416667 37.375,40.0416667 L5.375,40.0416667 C3.775,40.0416667 2.70833331,38.975 2.70833331,37.375 L2.70833331,21.375 C2.70833331,19.775 3.775,18.7083333 5.375,18.7083333 L37.375,18.7083333 C38.975,18.7083333 40.0416667,19.775 40.0416667,21.375 L40.0416667,28.0416667 C40.0416667,28.8416667 40.575,29.375 41.375,29.375 Z M10.7083333,16.0416667 L10.7083333,13.375 C10.7083333,7.50833331 15.5083333,2.70833331 21.375,2.70833331 C27.2416667,2.70833331 32.0416667,7.50833331 32.0416667,13.375 L32.0416667,16.0416667 L10.7083333,16.0416667 Z" id="形状" fill="#4E4F51" fill-rule="nonzero"></path>
        </g>
    </g>
</svg>