<?xml version="1.0" encoding="UTF-8"?>
<svg width="48px" height="48px" viewBox="0 0 48 48" version="1.1" xmlns="http://www.w3.org/2000/svg" xmlns:xlink="http://www.w3.org/1999/xlink">
    <!-- Generator: Sketch 52 (66869) - http://www.bohemiancoding.com/sketch -->
    <title>分组 2</title>
    <desc>Created with Sketch.</desc>
    <g id="Page-1" stroke="none" stroke-width="1" fill="none" fill-rule="evenodd">
        <g id="分组-2">
            <g id="增值服务" transform="translate(0.000000, 1.000000)" fill-rule="nonzero">
                <path d="M24.0237416,12.4119783 C24.2499107,12.1730966 24.5726335,12.0503343 24.9003884,12.0785057 C25.2281433,12.1066771 25.5251839,12.2827096 25.707272,12.5566821 L29.7773338,18.6741957 L36.659399,16.6904582 C37.019008,16.5869074 37.4065938,16.6769181 37.6837636,16.9283508 C37.9609333,17.1797835 38.0881714,17.5567918 38.0200458,17.9247597 L34.6864611,35.8950232 C34.5917339,36.4068103 34.1454202,36.7782088 33.6249406,36.7783641 L14.3750279,36.7783641 C13.8545483,36.7782088 13.4082346,36.4068103 13.3135074,35.8950232 L9.97992271,17.9247597 C9.91172698,17.5576774 10.0379891,17.1814102 10.3138075,16.929767 C10.5896258,16.6781239 10.9758652,16.58681 11.3351702,16.6882985 L18.3651787,18.6752755 L22.3175337,12.5545224 C22.4728344,12.3137162 22.7174743,12.1445057 22.9975867,12.0841488 C23.277699,12.023792 23.5703155,12.0772379 23.8110055,12.2327184 C23.8919964,12.2845526 23.9621885,12.3450258 24.0237416,12.4119783 Z M14.8728519,32.4588489 L15.2724069,34.6186065 L32.7264818,34.6186065 L35.5773608,19.249771 L29.615352,20.9678583 C29.1629402,21.0987345 28.6778883,20.921319 28.416687,20.5294274 L24.0140227,13.9108501 L19.7485029,20.5164689 C19.4911294,20.9154233 19.0033748,21.0994817 18.5465982,20.970018 L12.420448,19.2389723 L14.472217,30.2990912 L29.3993764,30.2990912 C29.9957767,30.2990912 30.4792548,30.7825694 30.4792548,31.37897 C30.4792548,31.9753706 29.9957767,32.4588489 29.3993764,32.4588489 L14.8728519,32.4588489 Z M23.9999842,14.1009088 C22.2107831,14.1009088 20.760349,12.6504742 20.760349,10.8612723 C20.760349,9.07207052 22.2107831,7.62163586 23.9999842,7.62163586 C25.7891854,7.62163586 27.2396195,9.07207052 27.2396195,10.8612723 C27.2396195,12.6504742 25.7891854,14.1009088 23.9999842,14.1009088 Z M23.9999842,11.9411511 C24.5963846,11.9411511 25.0798627,11.4576729 25.0798627,10.8612723 C25.0798627,10.2648717 24.5963846,9.78139353 23.9999842,9.78139353 C23.4035839,9.78139353 22.9201058,10.2648717 22.9201058,10.8612723 C22.9201058,11.4576729 23.4035839,11.9411511 23.9999842,11.9411511 Z" id="形状" fill="#4E4F51"></path>
                <path d="M23.9999842,11.9411511 C24.5963846,11.9411511 25.0798627,11.4576729 25.0798627,10.8612723 C25.0798627,10.2648717 24.5963846,9.78139353 23.9999842,9.78139353 C23.4035839,9.78139353 22.9201058,10.2648717 22.9201058,10.8612723 C22.9201058,11.4576729 23.4035839,11.9411511 23.9999842,11.9411511 Z" id="路径" fill="#5090F1"></path>
            </g>
            <path d="M31.6755154,1.25358107 C29.2655282,0.44065865 26.6842248,0 24,0 C10.745166,0 0,10.745166 0,24 C0,37.254834 10.745166,48 24,48 C37.254834,48 48,37.254834 48,24 C48,20.7318323 47.3467593,17.6162371 46.1637248,14.7766613 C45.5249355,15.6777762 44.7406982,16.4685217 43.8452212,17.1146894 C44.5934778,19.2716528 45,21.5883522 45,24 C45,35.5979797 35.5979797,45 24,45 C12.4020203,45 3,35.5979797 3,24 C3,12.4020203 12.4020203,3 24,3 C25.9034518,3 27.7477552,3.25324465 29.5010552,3.72787902 C30.0855812,2.78758682 30.8218042,1.95141794 31.6755154,1.25358107 Z" id="合并形状" fill="#4E4F51"></path>
        </g>
    </g>
</svg>