<?xml version="1.0" encoding="UTF-8"?>
<svg width="16px" height="16px" viewBox="0 0 16 16" version="1.1" xmlns="http://www.w3.org/2000/svg" xmlns:xlink="http://www.w3.org/1999/xlink">
    <!-- Generator: Sketch 58 (84663) - https://sketch.com -->
    <title>分组 2</title>
    <desc>Created with Sketch.</desc>
    <g id="页面-1" stroke="none" stroke-width="1" fill="none" fill-rule="evenodd">
        <g id="下载" transform="translate(-935.000000, -377.000000)" fill="#8A9098">
            <g id="编组" transform="translate(417.000000, 164.000000)">
                <g id="编组-9" transform="translate(20.000000, 197.000000)">
                    <g id="暂停备份-3" transform="translate(498.000000, 16.000000)">
                        <g id="分组-2">
                            <g id="分组">
                                <path d="M14.125,1.75 C14.1940356,1.75 14.25,1.80596441 14.25,1.875 L14.25,5.75 C14.25,6.02614237 14.0261424,6.25 13.75,6.25 L13.125,6.25 L9.875,6.25 C9.80596441,6.25 9.75,6.19403559 9.75,6.125 L9.75,5.375 C9.75,5.23692881 9.86192881,5.125 10,5.125 L12.2430053,5.12463422 C11.3211498,3.76695434 9.76473847,2.875 8,2.875 C5.16954066,2.875 2.875,5.16954066 2.875,8 C2.875,10.8304593 5.16954066,13.125 8,13.125 C10.7578835,13.125 13.0069789,10.9466195 13.1205039,8.21664096 L13.125,8 L14.25,8 C14.25,11.4517797 11.4517797,14.25 8,14.25 C4.54822031,14.25 1.75,11.4517797 1.75,8 C1.75,4.54822031 4.54822031,1.75 8,1.75 C10.1217447,1.75 11.996553,2.80726053 13.1263337,4.42369045 L13.125,2 C13.125,1.86192881 13.2369288,1.75 13.375,1.75 L14.125,1.75 Z" id="形状结合"></path>
                            </g>
                        </g>
                    </g>
                </g>
            </g>
        </g>
    </g>
</svg>