<?xml version="1.0" encoding="UTF-8"?>
<svg width="16px" height="16px" viewBox="0 0 16 16" version="1.1" xmlns="http://www.w3.org/2000/svg" xmlns:xlink="http://www.w3.org/1999/xlink">
    <!-- Generator: Sketch 58 (84663) - https://sketch.com -->
    <title>文件夹悬停</title>
    <desc>Created with Sketch.</desc>
    <g id="页面-1" stroke="none" stroke-width="1" fill="none" fill-rule="evenodd">
        <g id="下载备份" transform="translate(-955.000000, -515.000000)">
            <g id="编组" transform="translate(417.000000, 164.000000)">
                <g id="编组-11" transform="translate(0.000000, 335.000000)">
                    <g id="下载" transform="translate(538.000000, 16.000000)">
                        <g id="分组-2">
                            <g id="分组">
                                <path d="M5.79289322,2.5 C5.92550146,2.5 6.05267842,2.55267842 6.14644661,2.64644661 L7.85355339,4.35355339 C7.94732158,4.44732158 8.07449854,4.5 8.20710678,4.5 L14.5,4.5 C14.7761424,4.5 15,4.72385763 15,5 L15,13 C15,13.2761424 14.7761424,13.5 14.5,13.5 L1.5,13.5 C1.22385763,13.5 1,13.2761424 1,13 L1,3 C1,2.72385763 1.22385763,2.5 1.5,2.5 L5.79289322,2.5 Z M5.53400974,3.625 L2.125,3.625 L2.125,12.375 L13.875,12.375 L13.875,5.625 L8.20710678,5.625 C7.77612999,5.625 7.36280488,5.45379513 7.05805826,5.14904852 L5.53400974,3.625 Z M9.875,9.75 C9.94403559,9.75 10,9.80596441 10,9.875 L10,10.625 C10,10.6940356 9.94403559,10.75 9.875,10.75 L6.125,10.75 C6.05596441,10.75 6,10.6940356 6,10.625 L6,9.875 C6,9.80596441 6.05596441,9.75 6.125,9.75 L9.875,9.75 Z" id="合并形状" fill="#5090F1" fill-rule="nonzero"></path>
                                <rect id="矩形" stroke="#979797" stroke-width="0.5" fill="#D8D8D8" opacity="0" x="0.25" y="0.25" width="15.5" height="15.5"></rect>
                            </g>
                        </g>
                    </g>
                </g>
            </g>
        </g>
    </g>
</svg>