<?xml version="1.0" encoding="UTF-8"?>
<svg width="16px" height="16px" viewBox="0 0 16 16" version="1.1" xmlns="http://www.w3.org/2000/svg" xmlns:xlink="http://www.w3.org/1999/xlink">
    <!-- Generator: Sketch 58 (84663) - https://sketch.com -->
    <title>删除悬停</title>
    <desc>Created with Sketch.</desc>
    <g id="页面-1" stroke="none" stroke-width="1" fill="none" fill-rule="evenodd">
        <g id="下载备份" transform="translate(-981.000000, -377.000000)" fill-rule="nonzero">
            <g id="编组" transform="translate(417.000000, 164.000000)">
                <g id="编组-9" transform="translate(20.000000, 197.000000)">
                    <g id="删除备份-3" transform="translate(544.000000, 16.000000)">
                        <g id="delete-2">
                            <g id="delete">
                                <rect id="矩形" fill="#000000" opacity="0" x="0" y="0" width="16" height="16"></rect>
                                <path d="M12.5,4.375 L12.5,14.125 C12.5,14.1940356 12.4440356,14.25 12.375,14.25 L3.625,14.25 C3.55596441,14.25 3.5,14.1940356 3.5,14.125 L3.5,4.375 L1.875,4.375 C1.80596441,4.375 1.75,4.31903559 1.75,4.25 L1.75,3.375 C1.75,3.30596441 1.80596441,3.25 1.875,3.25 L4.96875,3.25 L4.96875,2.25 C4.96875,1.97385937 5.19260937,1.75 5.46875,1.75 L10.53125,1.75 C10.8073906,1.75 11.03125,1.97385937 11.03125,2.25 L11.03125,3.25 L14.125,3.25 C14.1940356,3.25 14.25,3.30596441 14.25,3.375 L14.25,4.25 C14.25,4.31903559 14.1940356,4.375 14.125,4.375 L12.5,4.375 Z M11.375,4.375 L4.625,4.375 L4.625,13.125 L11.375,13.125 L11.375,4.375 Z M6.375,6 L7.125,6 C7.19403559,6 7.25,6.05596441 7.25,6.125 L7.25,12.125 C7.25,12.1940356 7.19403559,12.25 7.125,12.25 L6.375,12.25 C6.30596441,12.25 6.25,12.1940356 6.25,12.125 L6.25,6.125 C6.25,6.05596441 6.30596441,6 6.375,6 Z M8.875,6 L9.625,6 C9.69403559,6 9.75,6.05596441 9.75,6.125 L9.75,12.125 C9.75,12.1940356 9.69403559,12.25 9.625,12.25 L8.875,12.25 C8.80596441,12.25 8.75,12.1940356 8.75,12.125 L8.75,6.125 C8.75,6.05596441 8.80596441,6 8.875,6 Z" id="形状" fill="#E65441"></path>
                            </g>
                        </g>
                    </g>
                </g>
            </g>
        </g>
    </g>
</svg>