<?xml version="1.0" encoding="UTF-8"?>
<svg width="16px" height="16px" viewBox="0 0 16 16" version="1.1" xmlns="http://www.w3.org/2000/svg" xmlns:xlink="http://www.w3.org/1999/xlink">
    <!-- Generator: Sketch 58 (84663) - https://sketch.com -->
    <title>分组 2</title>
    <desc>Created with Sketch.</desc>
    <g id="页面-1" stroke="none" stroke-width="1" fill="none" fill-rule="evenodd">
        <g id="下载" transform="translate(-935.000000, -239.000000)">
            <g id="编组" transform="translate(417.000000, 164.000000)">
                <g id="编组-7" transform="translate(20.000000, 59.000000)">
                    <g id="编组-6">
                        <g id="删除" transform="translate(498.000000, 16.000000)">
                            <g id="分组-3">
                                <g id="分组-2">
                                    <rect id="矩形" stroke="#979797" stroke-width="0.5" fill="#D8D8D8" opacity="0" x="0.25" y="0.25" width="15.5" height="15.5"></rect>
                                    <path d="M8,1 C11.8659932,1 15,4.13400675 15,8 C15,11.8659932 11.8659932,15 8,15 C4.13400675,15 1,11.8659932 1,8 C1,4.13400675 4.13400675,1 8,1 Z M8,2.125 C4.75532709,2.125 2.125,4.75532709 2.125,8 C2.125,11.2446729 4.75532709,13.875 8,13.875 C11.2446729,13.875 13.875,11.2446729 13.875,8 C13.875,4.75532709 11.2446729,2.125 8,2.125 Z" id="形状" fill="#8A9098" fill-rule="nonzero"></path>
                                    <path d="M7.99999507,7.11610444 L5.34834957,4.46446609 C5.30057266,4.41668919 5.22374258,4.41567266 5.17472937,4.4614165 L5.17157288,4.46446609 L4.46446609,5.17157288 C4.41668919,5.21934978 4.41567266,5.29617987 4.4614165,5.34519308 L4.46446609,5.34834957 L7.11610444,7.99999507 L4.46446609,10.6516504 C4.41668919,10.6994273 4.41567266,10.7762574 4.4614165,10.8252706 L4.46446609,10.8284271 L5.17157288,11.5355339 C5.21934978,11.5833108 5.29617987,11.5843273 5.34519308,11.5385835 L5.34834957,11.5355339 L7.99999507,8.88387007 L10.6516504,11.5355339 C10.6994273,11.5833108 10.7762574,11.5843273 10.8252706,11.5385835 L10.8284271,11.5355339 L11.5355339,10.8284271 C11.5833108,10.7806502 11.5843273,10.7038201 11.5385835,10.6548069 L11.5355339,10.6516504 L8.88387007,7.99999507 L11.5355339,5.34834957 C11.5833108,5.30057266 11.5843273,5.22374258 11.5385835,5.17472937 L11.5355339,5.17157288 L10.8284271,4.46446609 C10.7806502,4.41668919 10.7038201,4.41567266 10.6548069,4.4614165 L10.6516504,4.46446609 L7.99999507,7.11610444 L5.34834957,4.46446609 L7.99999507,7.11610444 Z" id="路径" fill="#8A9098"></path>
                                </g>
                            </g>
                        </g>
                    </g>
                </g>
            </g>
        </g>
    </g>
</svg>