<?xml version="1.0" encoding="UTF-8"?>
<svg width="50px" height="47px" viewBox="0 0 50 47" version="1.1" xmlns="http://www.w3.org/2000/svg" xmlns:xlink="http://www.w3.org/1999/xlink">
    <!-- Generator: Sketch 52 (66869) - http://www.bohemiancoding.com/sketch -->
    <title>服务项目</title>
    <desc>Created with Sketch.</desc>
    <g id="Page-1" stroke="none" stroke-width="1" fill="none" fill-rule="evenodd">
        <g id="服务项目" fill-rule="nonzero">
            <path d="M25,19.2155905 C22.9694993,19.2567627 21.0097697,18.4819021 19.5736835,17.070071 C18.1375974,15.6582399 17.3494249,13.7316093 17.3913044,11.7354031 C17.3913044,7.46101034 23.5217392,1.04942111 24.2173913,0.30140237 C24.6590636,-0.100467457 25.3409364,-0.100467457 25.7826087,0.30140237 C26.4782608,1.00667716 32.6086956,7.37552249 32.6086956,11.7354031 C32.6505751,13.7316093 31.8624026,15.6582399 30.4263165,17.070071 C28.9902303,18.4819021 27.0305007,19.2567627 25,19.2155905 Z M19.5652174,11.7354031 C19.5652175,14.6862555 21.9984525,17.078394 25,17.078394 C28.0015475,17.078394 30.4347825,14.6862555 30.4347826,11.7354031 C30.4347826,9.14939546 27.0217391,4.85363072 25,2.63094644 C22.9782608,4.76814287 19.5652173,8.78455076 19.5652174,11.7354031 Z M20.6521739,46.9991438 L7.60869564,46.9991438 C7.22712255,47.0013283 6.87232795,46.806648 6.67391305,46.4862166 L2.32608698,39.3479806 C0.805331655,36.8558645 0.00137148502,34.0045815 0,31.0984025 L0,11.7354031 C0,11.4519933 0.114518311,11.1801911 0.31836221,10.9797901 C0.522206109,10.7793891 0.798677764,10.6668049 1.08695656,10.6668049 C4.15316906,10.6674993 6.87561246,12.5952406 7.84782613,15.4541249 L10.0217391,21.7374823 C11.2551605,21.0695735 12.7178821,20.9439457 14.0504242,21.3914735 C15.3829662,21.8390013 16.4617814,22.8181918 17.0217391,24.0883983 L20.2826087,31.5899577 C21.2761774,33.8502866 21.7867344,36.2872122 21.7826087,38.7495657 L21.7826087,45.9305456 C21.7828456,46.2215191 21.6623784,46.5000053 21.4490316,46.7016817 C21.2356848,46.9033581 20.9479096,47.0107828 20.6521739,46.9991438 Z M8.2173913,44.8619474 L19.5653062,44.8619474 L19.5652174,38.7495657 C19.5725873,36.5803326 19.1209971,34.4332989 18.2391304,32.4448363 L14.9782609,24.9432769 C14.6294205,24.2254184 13.9777862,23.6941655 13.1956522,23.4899833 C12.1920282,23.2121019 11.114445,23.5045711 10.3979892,24.2493032 C9.68153347,24.9940353 9.44450573,26.0680607 9.78260871,27.0377293 L12.9565218,34.8384963 C13.1502208,35.1974418 13.1200888,35.6333284 12.8787725,35.9632094 C12.6374562,36.2930903 12.2267165,36.4598783 11.8189456,36.3935704 C11.4111747,36.3272625 11.0769393,36.0393337 10.9565217,35.6506309 L7.78260873,27.7643761 C7.17999739,26.2873501 7.34201414,24.6149063 8.2173913,23.2762637 L5.78260869,16.1166557 C5.22145311,14.5084539 3.85805794,13.2972781 2.17391307,12.9108612 L2.17391307,31.0984025 C2.17516017,33.6209937 2.87399616,36.0957895 4.19565222,38.2580105 L8.2173913,44.8619474 Z M42.3913044,46.9991438 L29.3478261,46.9991438 C28.7475166,46.9991438 28.2608696,46.520716 28.2608696,45.9305456 L28.2608696,38.7495657 C28.2567439,36.2872122 28.7673009,33.8502866 29.7608696,31.5899577 L33.0217391,24.0883983 C33.5816968,22.8181918 34.660512,21.8390013 35.993054,21.3914735 C37.3255961,20.9439457 38.7883177,21.0695735 40.0217391,21.7374823 L42.1956522,15.4541249 C43.1627459,12.6100964 45.8628467,10.6858008 48.9130434,10.6668049 C49.2013222,10.6668049 49.4777939,10.7793891 49.6816378,10.9797901 C49.8854817,11.1801911 50,11.4519933 50,11.7354031 L50,31.0984025 C49.9986285,34.0045815 49.1946683,36.8558645 47.673913,39.3479806 L43.3260869,46.4862166 C43.127672,46.806648 42.7728775,47.0013283 42.3913044,46.9991438 Z M30.4346938,44.8619474 L41.7826087,44.8619474 L45.8043478,38.2580105 C47.1260038,36.0957895 47.8248398,33.6209937 47.8260869,31.0984025 L47.8260869,12.9108612 C46.1419421,13.2972781 44.7785469,14.5084539 44.2173913,16.1166557 L41.7826087,23.3403796 C42.6579859,24.6790222 42.8200026,26.351466 42.2173913,27.828492 L39.0434783,35.6506309 C38.781068,36.1369059 38.1858406,36.3476417 37.6683227,36.1374946 C37.1508047,35.9273475 36.8803448,35.3650843 37.0434782,34.8384963 L40.2173913,27.0377293 C40.5554943,26.0680607 40.3184665,24.9940353 39.6020108,24.2493032 C38.885555,23.5045711 37.8079718,23.2121019 36.8043478,23.4899833 C36.0003852,23.7176346 35.3447949,24.2914124 35.0217391,25.0501367 L31.7608696,32.5516961 C30.8790029,34.5401587 30.4274127,36.6871924 30.4347826,38.8564254 L30.4346938,44.8619474 Z" id="形状" fill="#4E4F51"></path>
            <path d="M19.5652174,11.7354031 C19.5652175,14.6862555 21.9984525,17.078394 25,17.078394 C28.0015475,17.078394 30.4347825,14.6862555 30.4347826,11.7354031 C30.4347826,9.14939546 27.0217391,4.85363072 25,2.63094644 C22.9782608,4.76814287 19.5652173,8.78455076 19.5652174,11.7354031 Z" id="路径" fill="#5090F1"></path>
        </g>
    </g>
</svg>