<?xml version="1.0" encoding="UTF-8"?>
<svg width="50px" height="33px" viewBox="0 0 50 33" version="1.1" xmlns="http://www.w3.org/2000/svg" xmlns:xlink="http://www.w3.org/1999/xlink">
    <!-- Generator: Sketch 52 (66869) - http://www.bohemiancoding.com/sketch -->
    <title>全局_短信推送 copy</title>
    <desc>Created with Sketch.</desc>
    <g id="Page-1" stroke="none" stroke-width="1" fill="none" fill-rule="evenodd">
        <g id="全局_短信推送-copy">
            <path d="M4.57057722,33 C3.70317137,33 3,32.3013711 3,31.4395688 C3,30.5777664 3.70317137,29.8791375 4.57057722,29.8791375 L41.2090025,29.8791375 C43.1785063,29.8791375 44.9218471,28.2843768 45.0914694,26.3213543 L46.8505159,6.40400984 C46.9390249,5.55128424 46.6606384,4.70111582 46.0840742,4.06336297 C45.5025607,3.44878642 44.6870199,3.10654551 43.8381488,3.12086249 L13.7615951,3.12086249 C12.5176979,3.12086249 11.1230254,4.21940609 10.3848541,5.30546624 C10.0755457,5.77801988 9.53376413,6.04809863 8.96757466,6.01198172 C8.4013852,5.97586481 7.89881453,5.63916741 7.65286939,5.13119445 C7.40692426,4.6232215 7.45584229,4.02294866 7.78083705,3.5609041 C8.89280572,1.91933043 11.1261665,0 13.7615951,0 L43.8350076,0 C45.6097599,0 47.2274544,0.692831473 48.3928227,1.95053906 C49.5644733,3.21760923 50.12674,4.89351239 49.9759645,6.67240401 L48.2169181,26.599111 C47.9090849,30.1256856 44.7616482,33 41.2058614,33 L4.57057722,33 Z" id="路径" fill="#4E4F51"></path>
            <path d="M10.7615122,14.0497851 L3.83604643,14.0497851 C3.01667429,14.0497851 2.35244194,13.3816002 2.35244194,12.5573523 C2.35244194,11.7331045 3.01667429,11.0649195 3.83604643,11.0649195 L10.758545,11.0649195 C11.5779171,11.0640953 12.2428137,11.731612 12.2436331,12.5558599 C12.2444525,13.3801078 11.5808843,14.0489609 10.7615122,14.0497851 Z M17.6543387,20.2821844 L2.14473731,20.2821844 C1.32536517,20.2821844 0.661132813,19.6139995 0.661132812,18.7897516 C0.661132812,17.9655038 1.32536517,17.2973188 2.14473731,17.2973188 L17.6543387,17.2973188 C18.4737108,17.2973188 19.1379432,17.9655038 19.1379432,18.7897516 C19.1379432,19.6139995 18.4737108,20.2821844 17.6543387,20.2821844 Z M22.7520037,26.5653264 L5.82110924,26.5653264 C5.00173711,26.5653264 4.33750475,25.8971415 4.33750475,25.0728937 C4.33750475,24.2486458 5.00173711,23.5804609 5.82110924,23.5804609 L22.7549709,23.5804609 C23.2850118,23.580994 23.774507,23.8659428 24.0390684,24.3279697 C24.3036298,24.7899967 24.3030642,25.3589088 24.0375848,25.8204026 C23.7721053,26.2818963 23.2820446,26.5658597 22.7520037,26.5653264 Z" id="形状" fill="#4E4F51" fill-rule="nonzero"></path>
            <path d="M27.3189506,21.7420082 C26.9553101,21.7426737 26.6028549,21.61557 26.3224576,21.3826492 L8.65507474,6.75925583 C8.04617719,6.19047799 7.98330106,5.24292683 8.51164719,4.59778477 C9.03999332,3.95264271 9.97655974,3.83336605 10.6480608,4.32570126 L27.3816231,18.17994 L46.5625473,4.26580807 C47.2642799,3.79407307 48.2113659,3.96625796 48.7045642,4.65523727 C49.1977624,5.34421658 49.0598217,6.30237711 48.3925848,6.82230128 L28.2339694,21.4425423 C27.9685326,21.638006 27.6479053,21.7429404 27.3189506,21.7420082 Z" id="路径" fill="#4E4F51" fill-rule="nonzero"></path>
            <path d="M3.83604643,14.0497851 C3.01667429,14.0497851 2.35244194,13.3816002 2.35244194,12.5573523 C2.35244194,11.7331045 3.01667429,11.0649195 3.83604643,11.0649195 L10.758545,11.0649195 C11.5779171,11.0640953 12.2428137,11.731612 12.2436331,12.5558599 C12.2444525,13.3801078 11.5808843,14.0489609 10.7615122,14.0497851 L3.83604643,14.0497851 Z" id="路径" stroke="#4E4F51" fill="#5090F1"></path>
            <path d="M17.6543387,20.2821844 L2.14473731,20.2821844 C1.32536517,20.2821844 0.661132813,19.6139995 0.661132812,18.7897516 C0.661132812,17.9655038 1.32536517,17.2973188 2.14473731,17.2973188 L17.6543387,17.2973188 C18.4737108,17.2973188 19.1379432,17.9655038 19.1379432,18.7897516 C19.1379432,19.6139995 18.4737108,20.2821844 17.6543387,20.2821844 Z" id="路径" stroke="#4E4F51" fill="#5090F1"></path>
            <path d="M22.7520037,26.5653264 L5.82110924,26.5653264 C5.00173711,26.5653264 4.33750475,25.8971415 4.33750475,25.0728937 C4.33750475,24.2486458 5.00173711,23.5804609 5.82110924,23.5804609 L22.7549709,23.5804609 C23.2850118,23.580994 23.774507,23.8659428 24.0390684,24.3279697 C24.3036298,24.7899967 24.3030642,25.3589088 24.0375848,25.8204026 C23.7721053,26.2818963 23.2820446,26.5658597 22.7520037,26.5653264 Z" id="路径" stroke="#4E4F51" fill="#5090F1"></path>
        </g>
    </g>
</svg>